<?xml version="1.0" encoding="UTF-8" standalone="no"?>
<svg
   xmlns:dc="http://purl.org/dc/elements/1.1/"
   xmlns:cc="http://creativecommons.org/ns#"
   xmlns:rdf="http://www.w3.org/1999/02/22-rdf-syntax-ns#"
   xmlns:svg="http://www.w3.org/2000/svg"
   xmlns="http://www.w3.org/2000/svg"
   xmlns:sodipodi="http://sodipodi.sourceforge.net/DTD/sodipodi-0.dtd"
   xmlns:inkscape="http://www.inkscape.org/namespaces/inkscape"
   version="1.1"
   id="svg2"
   width="64"
   height="64"
   viewBox="0 0 64 64"
   sodipodi:docname="seLogo.png.svg"
   inkscape:version="1.0.1 (3bc2e813f5, 2020-09-07)">
  <metadata
     id="metadata8">
    <rdf:RDF>
      <cc:Work
         rdf:about="">
        <dc:format>image/svg+xml</dc:format>
        <dc:type
           rdf:resource="http://purl.org/dc/dcmitype/StillImage" />
        <dc:title />
      </cc:Work>
    </rdf:RDF>
  </metadata>
  <defs
     id="defs6" />
  <sodipodi:namedview
     pagecolor="#ffffff"
     bordercolor="#666666"
     borderopacity="1"
     objecttolerance="10"
     gridtolerance="10"
     guidetolerance="10"
     inkscape:pageopacity="0"
     inkscape:pageshadow="2"
     inkscape:window-width="1920"
     inkscape:window-height="1025"
     id="namedview4"
     showgrid="false"
     inkscape:zoom="37.432465"
     inkscape:cx="34.616008"
     inkscape:cy="33.38539"
     inkscape:window-x="0"
     inkscape:window-y="0"
     inkscape:window-maximized="1"
     inkscape:current-layer="g48"
     inkscape:snap-intersection-paths="true"
     inkscape:object-paths="true"
     inkscape:snap-midpoints="true"
     inkscape:snap-smooth-nodes="true"
     inkscape:snap-nodes="true"
     inkscape:document-rotation="0"
     inkscape:snap-bbox="false"
     inkscape:bbox-nodes="true"
     inkscape:bbox-paths="true" />
  <g
     inkscape:groupmode="layer"
     inkscape:label="Image"
     id="g10">
    <g
       id="g5011"
       transform="translate(75.085796,27.22397)">
      <g
         id="g5039">
        <g
           id="g48"
           transform="matrix(0.95682163,0,0,0.98624594,-3.4130536,-0.42270824)">
          <g
             id="g5020"
             transform="matrix(0,1,1,0,-81.456524,-34.372271)">
            <path
               style="fill:#f3bb11;stroke-width:1.33333"
               d="m 9.9045165,49.118413 0.08647,-6.429603 9.2468605,9.300548 v 6.666667 z M 45.904517,13.72635 V 7.0596825 l 9.33333,9.2149805 -3.171608,3.276308 z"
               id="path4798"
               sodipodi:nodetypes="cccccccccc" />
            <g
               id="g5014">
              <path
                 style="fill:#1a1b5f;stroke-width:1.33333"
                 d="m 19.237847,55.322691 v -3.333333 l 3.33334,-3.131504 3.33333,-3.131504 v 3.333333 3.333334 l -3.33333,3.131504 -3.33334,3.131504 z m -9.2468605,-12.633884 7.9567705,-7.87374 7.95676,-7.87374 v 3.341717 3.341719 L 19.457007,39.975324 13.2135,45.89781 Z M 39.237847,35.441045 v -3.333334 l 8,-7.916524 8,-7.916524 v 3.333334 3.333333 l -8,7.916524 -8,7.916524 z m 0,-18.78502 v -3.333334 l 3.33334,-3.131505 3.33333,-3.1315035 v 3.3333345 3.333333 l -3.33333,3.131504 -3.33334,3.131504 z"
                 id="path4788"
                 sodipodi:nodetypes="ccccccccccccccccccccccccccccccccccc" />
            </g>
            <path
               style="fill:#cccccc;stroke-width:1.33333"
               d="m 25.904517,26.94133 13.33333,5.166381 v 6.666667 l -13.33333,-5.149612 z"
               id="path4794-9"
               sodipodi:nodetypes="ccccc" />
          </g>
          <path
             style="fill:#7db75d;stroke-width:1.33333"
             d="m -50.857787,35.191241 -9.370131,-9.33046 6.562673,-0.002 5.888917,6.264617 z"
             id="path4794"
             sodipodi:nodetypes="ccccc" />
          <path
             style="fill:#cccccc;fill-opacity:1;stroke-width:1.33333"
             d="m -38.139124,10.520672 2.007895,-1.8564667 6.161739,6.6641947 -2.037105,1.854165 z"
             id="path4794-9-6"
             sodipodi:nodetypes="ccccc" />
          <path
             style="fill:#7db75d;stroke-width:1.33333"
             d="m -8.2517854,-0.7882067 -9.7512776,-9.3228653 -6.03792,-0.01073 9.573685,9.25874401 z"
             id="path4794-1"
             sodipodi:nodetypes="ccccc" />
          <g
             id="g4998"
             transform="rotate(-93.221759,-36.285891,17.737522)">
            <g
               id="g5002">
              <path
                 style="fill:#1a1b5f;fill-opacity:1;stroke-width:1.33333"
                 d="m -50.436821,12.004488 -2.81589,-3.3726088 0.179818,-3.212068 0.17982,-3.2120654 3.252175,3.6379004 3.252183,3.637901 -0.616112,2.9467758 -0.616103,2.946773 z m 14.239887,-3.8934738 -7.220637,-8.18179728 0.183409,-3.27620832 0.183411,-3.2762054 7.652563,8.5601866 7.652563,8.5601892 -0.615334,2.897816 -0.615336,2.897816 z"
                 id="path4788-0"
                 sodipodi:nodetypes="cccccccccccccccccc" />
              <path
                 style="fill:#1a1b5f;stroke-width:1.33333"
                 d="m -25.502703,40.217938 6.137725,6.55054 0.424049,-6.201482 -0.35207,-0.414556 -3.22988,-3.657718 -2.998806,0.265036 -2.998804,0.265027 z m 5.54226,-13.682724 7.357932,8.175413 3.4437365,-3.181838 -4.5765475,-5.060166 -7.600096,-8.606804 -2.950094,0.270024 -2.950094,0.270025 z"
                 id="path4788-0-0"
                 sodipodi:nodetypes="cccccccccccccccc" />
            </g>
          </g>
        </g>
      </g>
    </g>
  </g>
</svg>
