<?xml version="1.0" encoding="UTF-8" standalone="no"?>
<svg
   xmlns:dc="http://purl.org/dc/elements/1.1/"
   xmlns:cc="http://creativecommons.org/ns#"
   xmlns:rdf="http://www.w3.org/1999/02/22-rdf-syntax-ns#"
   xmlns:svg="http://www.w3.org/2000/svg"
   xmlns="http://www.w3.org/2000/svg"
   xmlns:sodipodi="http://sodipodi.sourceforge.net/DTD/sodipodi-0.dtd"
   xmlns:inkscape="http://www.inkscape.org/namespaces/inkscape"
   width="26.331524mm"
   height="26.33103mm"
   viewBox="0 0 26.331524 26.33103"
   version="1.1"
   id="svg8"
   inkscape:version="1.0.2 (e86c870879, 2021-01-15)"
   sodipodi:docname="pencil.svg">
  <defs
     id="defs2" />
  <sodipodi:namedview
     id="base"
     pagecolor="#ffffff"
     bordercolor="#666666"
     borderopacity="1.0"
     inkscape:pageopacity="0.0"
     inkscape:pageshadow="2"
     inkscape:zoom="3.959798"
     inkscape:cx="27.996922"
     inkscape:cy="65.386711"
     inkscape:document-units="mm"
     inkscape:current-layer="g862"
     inkscape:document-rotation="0"
     showgrid="false"
     fit-margin-top="0"
     fit-margin-left="0"
     fit-margin-right="0"
     fit-margin-bottom="0"
     inkscape:window-width="1920"
     inkscape:window-height="1019"
     inkscape:window-x="0"
     inkscape:window-y="0"
     inkscape:window-maximized="1"
     inkscape:snap-object-midpoints="true" />
  <metadata
     id="metadata5">
    <rdf:RDF>
      <cc:Work
         rdf:about="">
        <dc:format>image/svg+xml</dc:format>
        <dc:type
           rdf:resource="http://purl.org/dc/dcmitype/StillImage" />
        <dc:title />
      </cc:Work>
    </rdf:RDF>
  </metadata>
  <g
     inkscape:label="Layer 1"
     inkscape:groupmode="layer"
     id="layer1"
     transform="translate(-1.2745356,-1.0343851)">
    <g
       id="g877"
       transform="translate(-2.2486283,-1.9280734)">
      <g
         id="g862"
         transform="translate(-5.5685167,-2.5027816)">
        <path
           style="fill:#b9b9b9;fill-opacity:1;stroke-width:0.264583"
           d="m 26.725302,18.132109 7.406021,-7.540625 0.120975,0.07688 0.120975,0.07688 -7.526996,7.463747 -7.526996,7.463748 z m -3.706478,-3.704166 7.404789,-7.4083335 h 0.132292 0.132291 l -7.404789,7.4083335 -7.404789,7.408333 h -0.132292 -0.132291 z"
           id="path874" />
        <path
           style="fill:#a3a3a3;fill-opacity:1;stroke-width:0.264583"
           d="m 26.326115,17.735234 7.007714,-7.011458 h 0.132292 0.132291 l -7.007713,7.011458 -7.007714,7.011458 h -0.132292 -0.132291 z"
           id="path872" />
        <path
           style="fill:#8c8c8c;fill-opacity:1;stroke-width:0.264583"
           d="M 9.2504042,31.56221 9.1227168,31.228984 9.1916039,18.396692 9.260491,5.5644012 H 22.357365 35.45424 V 18.661276 31.75815 L 22.416166,31.82679 9.3780916,31.89543 Z M 35.189657,18.661276 V 5.8289845 H 22.357365 9.5250743 V 18.661276 31.493567 H 22.357365 35.189657 Z M 17.285703,23.775511 15.89315,22.365442 h 0.398895 0.398894 l 1.16851,1.190625 1.16851,1.190625 h 0.277513 0.277513 l 6.94344,-6.94715 6.94344,-6.94715 V 10.578589 10.304786 L 32.27924,9.1362761 31.088615,7.967766 V 7.7020714 7.4363768 l 1.301147,1.2815822 1.301148,1.2815823 0.121091,0.4630537 0.121091,0.463054 -7.094342,7.090692 -7.094342,7.090692 -0.533076,0.03927 -0.533076,0.03927 z m 5.865412,-9.215277 7.272434,-7.2760412 h 0.04454 0.04454 l -0.06059,0.412832 -0.06059,0.412832 -6.859402,6.8632092 -6.859402,6.86321 h -0.396979 -0.396979 z"
           id="path870" />
        <path
           style="fill:#767676;fill-opacity:1;stroke-width:0.264583"
           d="M 30.294865,7.7093752 V 7.605391 L 30.69174,7.4530958 31.088615,7.3008006 V 7.55708 7.8133594 H 30.69174 30.294865 Z"
           id="path868" />
        <path
           style="fill:#606060;fill-opacity:1;stroke-width:0.264583"
           d="m 18.917782,25.260244 v -0.280198 l 0.264584,0.163521 0.264583,0.163522 v 0.116676 0.116677 h -0.264583 l -3.307292,0.926047 z m -3.439583,-2.998786 v -0.103984 l 0.396875,-0.152295 0.396875,-0.152296 v 0.25628 0.256279 h -0.396875 l -1.190625,2.873613 z"
           id="path866"
           sodipodi:nodetypes="cccccccccccccccccc" />
        <path
           style="fill:#333333;fill-opacity:1;stroke-width:0.264583"
           d="m 14.684449,25.937317 v -0.698262 l 0.595313,0.08455 0.595312,0.08455 v 0.529167 0.529167 l -0.595312,0.08455 -0.595313,0.08455 z"
           id="path864" />
      </g>
    </g>
  </g>
</svg>
